<svg id="Layer_1" data-name="Layer 1" xmlns="http://www.w3.org/2000/svg" viewBox="0 0 156 137"><defs><style>.cls-1,.cls-4{fill:#008c99;}.cls-1{opacity:0.15;}.cls-2{fill:none;stroke:#008c99;stroke-miterlimit:10;stroke-width:2px;}.cls-3{opacity:0.5;}</style></defs><title>feature-code</title><rect class="cls-1" x="8" y="9" width="148" height="128" rx="1" ry="1"/><rect class="cls-2" x="1" y="2" width="148" height="128" rx="1" ry="1"/><g class="cls-3"><path class="cls-4" d="M14.06,20.65h1.53V16.28l-1.32,1-.6-.8L16,14.75h.88v5.9h1.5v1.1H14.06Z"/><path class="cls-4" d="M18.23,33.75H13.77v-1l.3-.26.4-.37.48-.46.49-.52.59-.69a4.93,4.93,0,0,0,.42-.59,2.41,2.41,0,0,0,.25-.54,1.9,1.9,0,0,0,.08-.55.91.91,0,0,0-.09-.39,1.07,1.07,0,0,0-.25-.33,1.2,1.2,0,0,0-.39-.23,1.39,1.39,0,0,0-.5-.09,1.86,1.86,0,0,0-.65.11,2.22,2.22,0,0,0-.62.37l-.52-.92a4.42,4.42,0,0,1,.94-.5,3.18,3.18,0,0,1,1.18-.21,2.82,2.82,0,0,1,.83.12,2.16,2.16,0,0,1,.7.35,1.73,1.73,0,0,1,.49.58,1.76,1.76,0,0,1,.18.81,3.08,3.08,0,0,1-.05.6,3,3,0,0,1-.17.55,3.71,3.71,0,0,1-.3.56q-.18.29-.44.63c-.13.17-.28.35-.44.53l-.46.5-.46.45c-.15.14-.29.26-.41.35h2.88Z"/><path class="cls-4" d="M15.48,44.79a2.06,2.06,0,0,0,.6-.08,1.43,1.43,0,0,0,.47-.24,1.17,1.17,0,0,0,.31-.36.92.92,0,0,0,.11-.44.94.94,0,0,0-.12-.5.9.9,0,0,0-.34-.32,1.66,1.66,0,0,0-.53-.17,4.22,4.22,0,0,0-.67,0h-.56V41.9l1.68-2.05H13.89v-1.1H18v.91l-1.76,2h.23a2,2,0,0,1,.68.12,1.69,1.69,0,0,1,.58.36,1.78,1.78,0,0,1,.41.6,2.08,2.08,0,0,1,.15.83,2.06,2.06,0,0,1-.23,1,2.29,2.29,0,0,1-.62.73,2.66,2.66,0,0,1-.88.44,3.68,3.68,0,0,1-1,.15,5.16,5.16,0,0,1-.9-.08,4.34,4.34,0,0,1-.87-.25l.35-1.08.25.1.35.1.4.08Z"/><path class="cls-4" d="M18.77,55.8h-1.2v2H16.36v-2h-3v-.89L16.5,50.7h1.07v4.06h1.2Zm-2.41-3.26-1.74,2.22h1.74Z"/><path class="cls-4" d="M15.37,68.74a2.23,2.23,0,0,0,.61-.08,1.52,1.52,0,0,0,.48-.23,1,1,0,0,0,.44-.87,1,1,0,0,0-.44-.87,2.22,2.22,0,0,0-1.3-.31h-.25l-.28,0h-.31V62.75h3.62V64h-2.5v1.35h.41a2.91,2.91,0,0,1,.93.15,2.11,2.11,0,0,1,.75.44,2,2,0,0,1,.5.71,2.34,2.34,0,0,1,.17.92,2.31,2.31,0,0,1-.22,1,2.16,2.16,0,0,1-.6.74,2.65,2.65,0,0,1-.88.46,3.59,3.59,0,0,1-1.07.16,2.73,2.73,0,0,1-.47,0l-.49-.11L14,69.59l-.35-.15.42-1a3,3,0,0,0,.53.22A2.31,2.31,0,0,0,15.37,68.74Z"/><path class="cls-4" d="M18.46,79.58a2.24,2.24,0,0,1-.18.91,2.31,2.31,0,0,1-.51.73,2.36,2.36,0,0,1-.76.49,2.52,2.52,0,0,1-1,.18,2.83,2.83,0,0,1-1-.17,2.2,2.2,0,0,1-.79-.49,2.36,2.36,0,0,1-.54-.83,3.1,3.1,0,0,1-.2-1.16,4.56,4.56,0,0,1,.34-1.8,5,5,0,0,1,.88-1.4,4.6,4.6,0,0,1,1.21-1,4.07,4.07,0,0,1,1.33-.47l.29,1a3.84,3.84,0,0,0-1,.32,3.66,3.66,0,0,0-.82.54,3.3,3.3,0,0,0-.61.71,2.52,2.52,0,0,0-.33.81,1.55,1.55,0,0,1,.6-.42,2.16,2.16,0,0,1,.88-.18,2.39,2.39,0,0,1,.84.15,1.92,1.92,0,0,1,.67.42,2,2,0,0,1,.45.67A2.36,2.36,0,0,1,18.46,79.58Zm-1.26,0a1,1,0,0,0-.33-.82,1.29,1.29,0,0,0-.87-.28,1.44,1.44,0,0,0-.72.18,1.28,1.28,0,0,0-.47.42,1.78,1.78,0,0,0,0,.25c0,.09,0,.16,0,.21a1.33,1.33,0,0,0,.08.46,1.1,1.1,0,0,0,.23.39,1.13,1.13,0,0,0,.38.26,1.29,1.29,0,0,0,.51.09,1.24,1.24,0,0,0,.45-.08,1.29,1.29,0,0,0,.39-.23,1.16,1.16,0,0,0,.27-.37A1.07,1.07,0,0,0,17.2,79.63Z"/><path class="cls-4" d="M14,93.75l2.88-5.82H13.64V86.75H18.2v1l-2.91,6Z"/><path class="cls-4" d="M13.6,104a1.73,1.73,0,0,1,.12-.64,2,2,0,0,1,.3-.52,2.52,2.52,0,0,1,.43-.42,4,4,0,0,1,.49-.32,3.09,3.09,0,0,1-.83-.69,1.5,1.5,0,0,1-.33-1,1.6,1.6,0,0,1,.17-.73,1.79,1.79,0,0,1,.47-.59,2.26,2.26,0,0,1,.72-.39,2.85,2.85,0,0,1,.91-.14,2.89,2.89,0,0,1,.84.12,2.3,2.3,0,0,1,.7.34,1.59,1.59,0,0,1,.47.54,1.44,1.44,0,0,1,.17.69,1.76,1.76,0,0,1-.31,1,2.67,2.67,0,0,1-.83.76,3.07,3.07,0,0,1,1,.73,1.62,1.62,0,0,1,.36,1.08,1.7,1.7,0,0,1-.2.81,2,2,0,0,1-.53.63,2.47,2.47,0,0,1-.77.41,3.2,3.2,0,0,1-1.87,0,2.46,2.46,0,0,1-.75-.37,1.71,1.71,0,0,1-.5-.58A1.6,1.6,0,0,1,13.6,104Zm3.56-.17a.72.72,0,0,0-.13-.43,1.42,1.42,0,0,0-.33-.32,3,3,0,0,0-.43-.25l-.46-.24a2,2,0,0,0-.77.57,1.08,1.08,0,0,0-.27.65.82.82,0,0,0,.32.7,1.43,1.43,0,0,0,.89.25,1.41,1.41,0,0,0,.84-.24A.79.79,0,0,0,17.16,103.87ZM15,100.52a.74.74,0,0,0,.11.41,1.1,1.1,0,0,0,.27.29,2.12,2.12,0,0,0,.38.22l.42.2a2,2,0,0,0,.32-.2,1.68,1.68,0,0,0,.27-.26,1.47,1.47,0,0,0,.2-.3.74.74,0,0,0,0-.68.91.91,0,0,0-.24-.27,1,1,0,0,0-.33-.16,1.25,1.25,0,0,0-.37-.06,1.14,1.14,0,0,0-.72.25.78.78,0,0,0-.21.26A.66.66,0,0,0,15,100.52Z"/><path class="cls-4" d="M13.54,112.94a2.48,2.48,0,0,1,.17-.94,2.12,2.12,0,0,1,.49-.73,2.27,2.27,0,0,1,.76-.48,2.69,2.69,0,0,1,1-.18,2.93,2.93,0,0,1,1,.17,2.14,2.14,0,0,1,.79.51,2.26,2.26,0,0,1,.51.83,3.31,3.31,0,0,1,.18,1.13,6,6,0,0,1-.3,2,4.15,4.15,0,0,1-.8,1.4,3.48,3.48,0,0,1-1.18.86,4.67,4.67,0,0,1-1.4.38l-.28-1a3.49,3.49,0,0,0,1-.27,3,3,0,0,0,.77-.49,2.58,2.58,0,0,0,.54-.67,2.27,2.27,0,0,0,.27-.81,1.5,1.5,0,0,1-.54.33,2.22,2.22,0,0,1-.79.13h0A2.42,2.42,0,0,1,15,115a2.07,2.07,0,0,1-1.42-2Zm1.26-.07a1.11,1.11,0,0,0,.11.5,1.09,1.09,0,0,0,.27.36,1.17,1.17,0,0,0,.4.22A1.46,1.46,0,0,0,16,114a1.79,1.79,0,0,0,.71-.13,1.06,1.06,0,0,0,.44-.32,2.91,2.91,0,0,0,0-.4,1.91,1.91,0,0,0-.08-.55,1.44,1.44,0,0,0-.24-.48,1.19,1.19,0,0,0-.4-.34,1.18,1.18,0,0,0-.55-.12,1.11,1.11,0,0,0-1.15,1.19Z"/></g><path class="cls-4" d="M36.06,14.75h2.09v4.32a13.48,13.48,0,0,0,.08,1.48.49.49,0,0,0,0,.1h.64v1.1H37.27l-.13-.64h0a1.11,1.11,0,0,1-.27.32,2,2,0,0,1-.38.24,2,2,0,0,1-.46.16,2.33,2.33,0,0,1-.5.06,2.59,2.59,0,0,1-.88-.15,1.92,1.92,0,0,1-.73-.47,2.22,2.22,0,0,1-.49-.8,3.29,3.29,0,0,1-.18-1.15,3.12,3.12,0,0,1,.2-1.14,2.41,2.41,0,0,1,.54-.84,2.36,2.36,0,0,1,.81-.53,2.8,2.8,0,0,1,1-.19,4.63,4.63,0,0,1,.58,0,1.94,1.94,0,0,1,.47.11v-.93h-.79Zm-.27,6a1.24,1.24,0,0,0,.67-.19.86.86,0,0,0,.38-.54V17.95a1,1,0,0,0-.38-.17,2.35,2.35,0,0,0-.51-.06,1.56,1.56,0,0,0-.53.09,1.2,1.2,0,0,0-.45.29,1.37,1.37,0,0,0-.31.5,2.19,2.19,0,0,0-.12.76,1.57,1.57,0,0,0,.32,1A1.12,1.12,0,0,0,35.79,20.79Z"/><path class="cls-4" d="M44.34,21.22a1.8,1.8,0,0,1-.33.23,3.27,3.27,0,0,1-.48.21,3.72,3.72,0,0,1-.61.16,3.9,3.9,0,0,1-.7.06,3.39,3.39,0,0,1-1.14-.18,2.24,2.24,0,0,1-1.39-1.35,3.09,3.09,0,0,1-.18-1.1,2.94,2.94,0,0,1,.21-1.15,2.31,2.31,0,0,1,.58-.83,2.4,2.4,0,0,1,.85-.5A3.33,3.33,0,0,1,43,16.71a2.15,2.15,0,0,1,.75.35,1.85,1.85,0,0,1,.55.65,2.23,2.23,0,0,1,.21,1,4.78,4.78,0,0,1-.1.93H40.8a1.16,1.16,0,0,0,.13.54,1.08,1.08,0,0,0,.33.36,1.44,1.44,0,0,0,.47.21,2.35,2.35,0,0,0,.56.06,2.93,2.93,0,0,0,1-.14,2.08,2.08,0,0,0,.63-.34Zm-2.16-3.57a1.65,1.65,0,0,0-.49.07,1.36,1.36,0,0,0-.42.21,1.14,1.14,0,0,0-.31.34,1.06,1.06,0,0,0-.14.46h2.46a1,1,0,0,0-1.11-1.08Z"/><path class="cls-4" d="M45.71,21.75v-1.1h1.18v-2.8H45.7v-1.1h1.19v-.28a1.85,1.85,0,0,1,.17-.81,1.62,1.62,0,0,1,.44-.56,1.77,1.77,0,0,1,.63-.33,2.58,2.58,0,0,1,.73-.1,4.65,4.65,0,0,1,1.14.12,2.9,2.9,0,0,1,.73.28l-.38,1a4.53,4.53,0,0,0-.5-.2,2.17,2.17,0,0,0-.68-.09,1,1,0,0,0-.75.25,1.09,1.09,0,0,0-.21.73h2.1v1.1h-2.1v2.8H50.3v1.1Z"/><path class="cls-4" d="M59.41,21.75V18.69a2.4,2.4,0,0,0,0-.48.91.91,0,0,0-.11-.29.32.32,0,0,0-.16-.14.57.57,0,0,0-.2,0,.51.51,0,0,0-.32.11.53.53,0,0,0-.19.28v3.62H57.2v-5h1l.14.55h0a1.22,1.22,0,0,1,.44-.47,1.24,1.24,0,0,1,.68-.19,1.32,1.32,0,0,1,.63.16.86.86,0,0,1,.41.56,1.11,1.11,0,0,1,.46-.53,1.28,1.28,0,0,1,.67-.19,1.47,1.47,0,0,1,.48.07.86.86,0,0,1,.38.27,1.31,1.31,0,0,1,.25.52,3.39,3.39,0,0,1,.08.83v3.42H61.6v-3.2a1,1,0,0,0-.14-.63.44.44,0,0,0-.36-.18.56.56,0,0,0-.31.08.45.45,0,0,0-.18.27v3.65Z"/><path class="cls-4" d="M63.9,17.09a5.49,5.49,0,0,1,.92-.31,5.24,5.24,0,0,1,1.25-.13,2.76,2.76,0,0,1,.88.13,1.48,1.48,0,0,1,.59.35,1.34,1.34,0,0,1,.33.55,2.42,2.42,0,0,1,.1.72q0,.51,0,.87c0,.24,0,.45,0,.64s0,.3,0,.47,0,.18,0,.27h.65v1.1H66.92l-.13-.68h0a1.73,1.73,0,0,1-.57.54,1.89,1.89,0,0,1-1,.23,1.69,1.69,0,0,1-1.18-.4,1.37,1.37,0,0,1-.44-1.06,1.59,1.59,0,0,1,.15-.73,1.29,1.29,0,0,1,.45-.5,2.13,2.13,0,0,1,.71-.29,4.1,4.1,0,0,1,.92-.1l.38,0,.49,0a1.06,1.06,0,0,0,0-.2v-.19a.64.64,0,0,0-.22-.55,1.06,1.06,0,0,0-.64-.16,3,3,0,0,0-.91.13,5.83,5.83,0,0,0-.68.26Zm1.7,3.67a1.2,1.2,0,0,0,.71-.17,1.18,1.18,0,0,0,.35-.37v-.6l-.3,0-.42,0a2,2,0,0,0-.38,0,1.24,1.24,0,0,0-.34.11.64.64,0,0,0-.24.19.47.47,0,0,0-.09.29.57.57,0,0,0,.16.44A.77.77,0,0,0,65.6,20.76Z"/><path class="cls-4" d="M69.59,20.65h1.76v-2.8H69.59v-1.1h3.06v3.9H74.5v1.1H69.59Zm1.52-5.26a.71.71,0,0,1,.23-.53.89.89,0,0,1,.64-.22,1,1,0,0,1,.67.22.69.69,0,0,1,.25.53.65.65,0,0,1-.25.52,1,1,0,0,1-.67.21.93.93,0,0,1-.64-.21A.67.67,0,0,1,71.11,15.39Z"/><path class="cls-4" d="M75.12,16.75h1.75l.15.66h0a2,2,0,0,1,.66-.56,2.08,2.08,0,0,1,1-.24,2.37,2.37,0,0,1,.7.1A1.33,1.33,0,0,1,80,17a1.6,1.6,0,0,1,.37.63,3,3,0,0,1,.13,1v3.11H79.2V18.91a1.19,1.19,0,0,0-.28-.88,1,1,0,0,0-.69-.27,1.15,1.15,0,0,0-.68.22,1.08,1.08,0,0,0-.42.53v3.24h-1.3v-3.9h-.72Z"/><path class="cls-4" d="M85.55,23.87a4.65,4.65,0,0,1-1.36-.44A4,4,0,0,1,83,22.54a4.23,4.23,0,0,1-.81-1.36,5.21,5.21,0,0,1-.3-1.86,5.22,5.22,0,0,1,.3-1.85A4.35,4.35,0,0,1,83,16.09a4.06,4.06,0,0,1,1.17-.91,4.92,4.92,0,0,1,1.36-.47l.24,1.07a4.18,4.18,0,0,0-.79.29,2.9,2.9,0,0,0-.84.61,3.34,3.34,0,0,0-.68,1,4.08,4.08,0,0,0-.27,1.6,3.7,3.7,0,0,0,.29,1.55,3.42,3.42,0,0,0,.71,1,3.13,3.13,0,0,0,.85.61,3.43,3.43,0,0,0,.74.26Z"/><path class="cls-4" d="M88.2,22.78a3.43,3.43,0,0,0,.74-.26,3.13,3.13,0,0,0,.85-.61,3.44,3.44,0,0,0,.71-1,3.7,3.7,0,0,0,.29-1.55,4.06,4.06,0,0,0-.28-1.6,3.34,3.34,0,0,0-.67-1,2.9,2.9,0,0,0-.84-.61,4.18,4.18,0,0,0-.79-.29l.24-1.07a4.93,4.93,0,0,1,1.36.47,4,4,0,0,1,1.17.91,4.35,4.35,0,0,1,.82,1.38,5.22,5.22,0,0,1,.3,1.85,5.21,5.21,0,0,1-.3,1.86A4.24,4.24,0,0,1,91,22.54a4,4,0,0,1-1.17.89,4.66,4.66,0,0,1-1.36.44Z"/><path class="cls-4" d="M95.19,17.47a.72.72,0,0,1,.22-.56.82.82,0,0,1,.58-.21.84.84,0,0,1,.6.21.72.72,0,0,1,.22.56.74.74,0,0,1-.22.56.83.83,0,0,1-.6.21.8.8,0,0,1-.58-.21A.74.74,0,0,1,95.19,17.47Zm0,3.62a.72.72,0,0,1,.22-.55.82.82,0,0,1,.58-.21.84.84,0,0,1,.6.21.72.72,0,0,1,.22.55.74.74,0,0,1-.22.56.83.83,0,0,1-.6.21.8.8,0,0,1-.58-.21A.74.74,0,0,1,95.19,21.09Z"/><rect class="cls-1" x="47" y="27" width="92" height="7" rx="1" ry="1"/><rect class="cls-1" x="47" y="39" width="72" height="7" rx="1" ry="1"/><rect class="cls-1" x="47" y="51" width="92" height="7" rx="1" ry="1"/><rect class="cls-1" x="47" y="63" width="21" height="7" rx="1" ry="1"/><rect class="cls-1" x="47" y="75" width="30" height="7" rx="1" ry="1"/><rect class="cls-1" x="58" y="87" width="30" height="7" rx="1" ry="1"/><rect class="cls-1" x="58" y="99" width="61" height="7" rx="1" ry="1"/><rect class="cls-1" x="58" y="111" width="49" height="7" rx="1" ry="1"/></svg>