<svg id="Layer_1" data-name="Layer 1" xmlns="http://www.w3.org/2000/svg" viewBox="0 0 156 137"><defs><style>.cls-1,.cls-3{fill:#008c99;}.cls-1{opacity:0.15;}.cls-2,.cls-4,.cls-5{fill:none;stroke:#008c99;}.cls-2,.cls-4{stroke-miterlimit:10;}.cls-2,.cls-5{stroke-width:2px;}.cls-4,.cls-5{stroke-linecap:round;}.cls-5{stroke-linejoin:round;}</style></defs><title>feature-train</title><rect class="cls-1" x="8" y="9" width="148" height="128" rx="1" ry="1"/><rect class="cls-2" x="1" y="2" width="148" height="128" rx="1" ry="1"/><path class="cls-3" d="M17.44,21.88a5.17,5.17,0,0,1-1-.12,2.71,2.71,0,0,1-.67-.23l.39-1.13a2.32,2.32,0,0,0,.5.2,3.93,3.93,0,0,0,.77.13v-2c-.21-.09-.41-.2-.61-.31a2.44,2.44,0,0,1-.54-.41,1.82,1.82,0,0,1-.38-.58,2,2,0,0,1-.14-.79,1.86,1.86,0,0,1,.45-1.33,2.17,2.17,0,0,1,1.23-.61v-.91h1v.87a3.9,3.9,0,0,1,.76.12,4.48,4.48,0,0,1,.61.21l-.36,1.11a3.39,3.39,0,0,0-.43-.15,3.57,3.57,0,0,0-.58-.11v1.85q.31.14.62.31a2.58,2.58,0,0,1,.56.42,2,2,0,0,1,.4.56,1.8,1.8,0,0,1,.15.78,2.07,2.07,0,0,1-.46,1.43,2.18,2.18,0,0,1-1.27.67v.93h-1Zm-.38-5.37a.62.62,0,0,0,.23.49,2.53,2.53,0,0,0,.58.37v-1.6a.85.85,0,0,0-.64.23A.79.79,0,0,0,17.06,16.51Zm1.85,3.35a.64.64,0,0,0-.25-.52A2.82,2.82,0,0,0,18,19v1.76a1,1,0,0,0,.65-.28A.84.84,0,0,0,18.91,19.86Z"/><path class="cls-3" d="M27,16.75h1.7l.15.6h0a1.91,1.91,0,0,1,1.68-.74,2.38,2.38,0,0,1,.84.15,1.65,1.65,0,0,1,.66.46,2.14,2.14,0,0,1,.42.78,3.75,3.75,0,0,1,.15,1.13,3.67,3.67,0,0,1-.17,1.15,2.47,2.47,0,0,1-.49.88,2.11,2.11,0,0,1-.78.55,2.73,2.73,0,0,1-1,.19,4.14,4.14,0,0,1-.61,0,1.7,1.7,0,0,1-.5-.15v2h-1.3v-5.9H27Zm3.18,1a1.32,1.32,0,0,0-.69.19,1,1,0,0,0-.44.57v2.08a1.07,1.07,0,0,0,.41.18,2.23,2.23,0,0,0,.54.06,1.4,1.4,0,0,0,.52-.1,1.06,1.06,0,0,0,.42-.3,1.48,1.48,0,0,0,.28-.53,2.61,2.61,0,0,0,.1-.77,1.49,1.49,0,0,0-.32-1A1,1,0,0,0,30.18,17.71Z"/><path class="cls-3" d="M36,20.34h.38l1-3.59H38.7l-1.42,4.51q-.19.56-.37,1a3.71,3.71,0,0,1-.42.8,1.76,1.76,0,0,1-.57.53,1.59,1.59,0,0,1-.79.18,1.55,1.55,0,0,1-.43-.06,2.3,2.3,0,0,1-.37-.15,2.16,2.16,0,0,1-.3-.18l-.21-.17.67-.89a1.7,1.7,0,0,0,.31.21.74.74,0,0,0,.34.09.59.59,0,0,0,.48-.21,2.23,2.23,0,0,0,.33-.69h-.71l-2.08-5h1.41Z"/><path class="cls-3" d="M40.16,17.85h-1v-1.1h1V15.61l1.3-.37v1.51h2.62v1.1H41.46v1.43a1.73,1.73,0,0,0,.29,1.12,1,1,0,0,0,.81.35,1.72,1.72,0,0,0,.49-.07,1.84,1.84,0,0,0,.4-.17,2.25,2.25,0,0,0,.32-.22l.27-.22.6.9a1.92,1.92,0,0,1-.42.36,3.62,3.62,0,0,1-.55.29,3.47,3.47,0,0,1-.62.19,2.94,2.94,0,0,1-.63.07,2.16,2.16,0,0,1-1.69-.62,2.91,2.91,0,0,1-.56-2Z"/><path class="cls-3" d="M45,14.75h2v2.56h0a1.69,1.69,0,0,1,.64-.51,2.17,2.17,0,0,1,.94-.19,2.34,2.34,0,0,1,.7.1,1.32,1.32,0,0,1,.55.33,1.56,1.56,0,0,1,.36.63,3.15,3.15,0,0,1,.13,1v3.11h-1.3V18.91a1.24,1.24,0,0,0-.26-.88.9.9,0,0,0-.68-.27,1.13,1.13,0,0,0-.68.23,1.22,1.22,0,0,0-.44.58v3.19h-1.3v-5.9H45Z"/><path class="cls-3" d="M51.35,19.25a3.08,3.08,0,0,1,.19-1.12,2.25,2.25,0,0,1,1.38-1.34A3.18,3.18,0,0,1,54,16.61a3.13,3.13,0,0,1,1.13.19,2.32,2.32,0,0,1,.83.54,2.24,2.24,0,0,1,.51.83,3.18,3.18,0,0,1,.18,1.08,3.08,3.08,0,0,1-.19,1.12,2.25,2.25,0,0,1-1.37,1.34,3.18,3.18,0,0,1-1.08.18,3.13,3.13,0,0,1-1.12-.19,2.32,2.32,0,0,1-.83-.54,2.24,2.24,0,0,1-.51-.83A3.18,3.18,0,0,1,51.35,19.25Zm1.34,0a2,2,0,0,0,.09.61,1.49,1.49,0,0,0,.26.49,1.17,1.17,0,0,0,.41.32,1.25,1.25,0,0,0,.55.12,1.27,1.27,0,0,0,.95-.37,1.61,1.61,0,0,0,.36-1.17A1.73,1.73,0,0,0,55,18.13a1.17,1.17,0,0,0-1-.42,1.54,1.54,0,0,0-.52.08,1,1,0,0,0-.42.27,1.34,1.34,0,0,0-.28.48A2.17,2.17,0,0,0,52.69,19.25Z"/><path class="cls-3" d="M57.12,16.75h1.75l.15.66h0a2,2,0,0,1,.66-.56,2.08,2.08,0,0,1,1-.24,2.37,2.37,0,0,1,.7.1A1.33,1.33,0,0,1,62,17a1.6,1.6,0,0,1,.37.63,3,3,0,0,1,.13,1v3.11H61.2V18.91a1.19,1.19,0,0,0-.28-.88,1,1,0,0,0-.69-.27,1.15,1.15,0,0,0-.68.22,1.08,1.08,0,0,0-.42.53v3.24h-1.3v-3.9h-.72Z"/><path class="cls-3" d="M70.16,17.85h-1v-1.1h1V15.61l1.3-.37v1.51h2.62v1.1H71.46v1.43a1.73,1.73,0,0,0,.29,1.12,1,1,0,0,0,.81.35,1.72,1.72,0,0,0,.49-.07,1.84,1.84,0,0,0,.4-.17,2.25,2.25,0,0,0,.32-.22l.27-.22.6.9a1.92,1.92,0,0,1-.42.36,3.62,3.62,0,0,1-.55.29,3.47,3.47,0,0,1-.62.19,2.94,2.94,0,0,1-.63.07,2.16,2.16,0,0,1-1.69-.62,2.91,2.91,0,0,1-.56-2Z"/><path class="cls-3" d="M75.39,20.65h1.24v-2.8H75.39v-1.1h2.25l.15.66h0a2.66,2.66,0,0,1,.64-.55,1.58,1.58,0,0,1,.84-.22,1.13,1.13,0,0,1,.95.44,2.42,2.42,0,0,1,.34,1.47H79.43a1,1,0,0,0-.1-.52.37.37,0,0,0-.33-.17,1,1,0,0,0-.65.2,2,2,0,0,0-.42.46v2.13H80.1v1.1H75.39Z"/><path class="cls-3" d="M81.9,17.09a5.49,5.49,0,0,1,.92-.31,5.24,5.24,0,0,1,1.25-.13,2.76,2.76,0,0,1,.88.13,1.48,1.48,0,0,1,.59.35,1.34,1.34,0,0,1,.33.55,2.42,2.42,0,0,1,.1.72q0,.51,0,.87c0,.24,0,.45,0,.64s0,.3,0,.47,0,.18,0,.27h.65v1.1H84.92l-.13-.68h0a1.73,1.73,0,0,1-.57.54,1.89,1.89,0,0,1-1,.23,1.69,1.69,0,0,1-1.18-.4,1.37,1.37,0,0,1-.44-1.06,1.59,1.59,0,0,1,.15-.73,1.29,1.29,0,0,1,.45-.5,2.13,2.13,0,0,1,.71-.29,4.1,4.1,0,0,1,.92-.1l.38,0,.49,0a1.06,1.06,0,0,0,0-.2v-.19a.64.64,0,0,0-.22-.55,1.06,1.06,0,0,0-.64-.16,3,3,0,0,0-.91.13,5.83,5.83,0,0,0-.68.26Zm1.7,3.67a1.2,1.2,0,0,0,.71-.17,1.18,1.18,0,0,0,.35-.37v-.6l-.3,0-.42,0a2,2,0,0,0-.38,0,1.24,1.24,0,0,0-.34.11.64.64,0,0,0-.24.19.47.47,0,0,0-.09.29.57.57,0,0,0,.16.44A.77.77,0,0,0,83.6,20.76Z"/><path class="cls-3" d="M87.59,20.65h1.76v-2.8H87.59v-1.1h3.06v3.9H92.5v1.1H87.59Zm1.52-5.26a.71.71,0,0,1,.23-.53.89.89,0,0,1,.64-.22,1,1,0,0,1,.67.22.69.69,0,0,1,.25.53.65.65,0,0,1-.25.52,1,1,0,0,1-.67.21.93.93,0,0,1-.64-.21A.67.67,0,0,1,89.11,15.39Z"/><path class="cls-3" d="M93.12,16.75h1.75l.15.66h0a2,2,0,0,1,.66-.56,2.08,2.08,0,0,1,1-.24,2.37,2.37,0,0,1,.7.1A1.33,1.33,0,0,1,98,17a1.6,1.6,0,0,1,.37.63,3,3,0,0,1,.13,1v3.11H97.2V18.91a1.19,1.19,0,0,0-.28-.88,1,1,0,0,0-.69-.27,1.15,1.15,0,0,0-.68.22,1.08,1.08,0,0,0-.42.53v3.24h-1.3v-3.9h-.72Z"/><path class="cls-3" d="M101.19,21.09a.72.72,0,0,1,.22-.55.82.82,0,0,1,.58-.21.84.84,0,0,1,.6.21.72.72,0,0,1,.22.55.74.74,0,0,1-.22.56.83.83,0,0,1-.6.21.8.8,0,0,1-.58-.21A.74.74,0,0,1,101.19,21.09Z"/><path class="cls-3" d="M105,16.75h1.7l.15.6h0a1.91,1.91,0,0,1,1.68-.74,2.38,2.38,0,0,1,.84.15,1.65,1.65,0,0,1,.66.46,2.14,2.14,0,0,1,.42.78,3.75,3.75,0,0,1,.15,1.13,3.67,3.67,0,0,1-.17,1.15,2.47,2.47,0,0,1-.49.88,2.11,2.11,0,0,1-.78.55,2.73,2.73,0,0,1-1,.19,4.14,4.14,0,0,1-.61,0,1.7,1.7,0,0,1-.5-.15v2h-1.3v-5.9H105Zm3.18,1a1.32,1.32,0,0,0-.69.19,1,1,0,0,0-.44.57v2.08a1.07,1.07,0,0,0,.41.18,2.23,2.23,0,0,0,.54.06,1.4,1.4,0,0,0,.52-.1,1.06,1.06,0,0,0,.42-.3,1.48,1.48,0,0,0,.28-.53,2.61,2.61,0,0,0,.1-.77,1.49,1.49,0,0,0-.32-1A1,1,0,0,0,108.18,17.71Z"/><path class="cls-3" d="M114,20.34h.38l1-3.59h1.34l-1.42,4.51q-.19.56-.37,1a3.71,3.71,0,0,1-.42.8,1.76,1.76,0,0,1-.57.53,1.59,1.59,0,0,1-.79.18,1.55,1.55,0,0,1-.43-.06,2.3,2.3,0,0,1-.37-.15,2.16,2.16,0,0,1-.3-.18l-.21-.17.67-.89a1.7,1.7,0,0,0,.31.21.74.74,0,0,0,.34.09.59.59,0,0,0,.48-.21,2.23,2.23,0,0,0,.33-.69h-.71l-2.08-5h1.41Z"/><polygon class="cls-1" points="98 58 87 70.46 87 119 136 119 136 58 98 58"/><polygon class="cls-1" points="87 71 98 71 98 58.54 87 71"/><path class="cls-4" d="M96.31,55.49l35.2-.24a1,1,0,0,1,1,1v58.34a1,1,0,0,1-1,1H85a1,1,0,0,1-1-1V68.63c0-.5,11.34-12.56,12.31-13.15"/><rect class="cls-1" x="93" y="77" width="33" height="3" rx="1" ry="1"/><rect class="cls-1" x="93" y="83" width="33" height="3" rx="1" ry="1"/><rect class="cls-1" x="93" y="89" width="33" height="3" rx="1" ry="1"/><rect class="cls-1" x="93" y="95" width="33" height="3" rx="1" ry="1"/><rect class="cls-1" x="93" y="101" width="33" height="3" rx="1" ry="1"/><rect class="cls-1" x="93" y="107" width="33" height="3" rx="1" ry="1"/><path class="cls-5" d="M53,35c0,18.3,12.66,20.77,17.83,21"/><polygon class="cls-3" points="63.31 63.1 62.13 61.48 70.08 55.66 63.69 48.15 65.22 46.85 73 56 63.31 63.1"/></svg>