<svg id="Layer_1" data-name="Layer 1" xmlns="http://www.w3.org/2000/svg" viewBox="0 0 156 137"><defs><style>.cls-1,.cls-3,.cls-6{fill:#008c99;}.cls-1{opacity:0.15;}.cls-2,.cls-4,.cls-5{fill:none;stroke:#008c99;}.cls-2,.cls-4{stroke-miterlimit:10;}.cls-2,.cls-5{stroke-width:2px;}.cls-3{font-size:10px;font-family:PTMono-Bold, PT Mono;font-weight:700;}.cls-4,.cls-5{stroke-linecap:round;}.cls-5{stroke-linejoin:round;}</style></defs><title>feature-train</title><rect class="cls-1" x="8" y="9" width="148" height="128" rx="1" ry="1"/><rect class="cls-2" x="1" y="2" width="148" height="128" rx="1" ry="1"/><text class="cls-3" transform="translate(15 21.75)">$ python train.py</text><polygon class="cls-1" points="98 58 87 70.46 87 119 136 119 136 58 98 58"/><polygon class="cls-1" points="87 71 98 71 98 58.54 87 71"/><path class="cls-4" d="M96.31,55.49l35.2-.24a1,1,0,0,1,1,1v58.34a1,1,0,0,1-1,1H85a1,1,0,0,1-1-1V68.63c0-.5,11.34-12.56,12.31-13.15"/><rect class="cls-1" x="93" y="77" width="33" height="3" rx="1" ry="1"/><rect class="cls-1" x="93" y="83" width="33" height="3" rx="1" ry="1"/><rect class="cls-1" x="93" y="89" width="33" height="3" rx="1" ry="1"/><rect class="cls-1" x="93" y="95" width="33" height="3" rx="1" ry="1"/><rect class="cls-1" x="93" y="101" width="33" height="3" rx="1" ry="1"/><rect class="cls-1" x="93" y="107" width="33" height="3" rx="1" ry="1"/><path class="cls-5" d="M53,35c0,18.3,12.66,20.77,17.83,21"/><polygon class="cls-6" points="63.31 63.1 62.13 61.48 70.08 55.66 63.69 48.15 65.22 46.85 73 56 63.31 63.1"/></svg>