<svg id="Layer_1" data-name="Layer 1" xmlns="http://www.w3.org/2000/svg" viewBox="0 0 156 137"><defs><style>.cls-1{fill:#008c99;opacity:0.15;}.cls-2,.cls-3{fill:none;stroke:#008c99;stroke-miterlimit:10;}.cls-2{stroke-width:2px;}</style></defs><title>feature-app</title><rect class="cls-1" x="8" y="9" width="148" height="128" rx="1" ry="1"/><rect class="cls-2" x="1" y="2" width="148" height="128" rx="1" ry="1"/><rect class="cls-1" x="37" y="15" width="91" height="7" rx="1" ry="1"/><rect class="cls-3" x="19" y="34" width="52.5" height="37.16" rx="1" ry="1"/><path class="cls-1" d="M81,71s10-4,12-5,6-21.23,13-22c9-1,9.93,21.23,13,22,4,1,14,5,14,5Z"/><rect class="cls-3" x="81" y="34" width="52.5" height="37.16" rx="1" ry="1"/><rect class="cls-3" x="19" y="79" width="52.5" height="37.16" rx="1" ry="1"/><rect class="cls-3" x="81" y="79" width="52.5" height="37.16" rx="1" ry="1"/><rect class="cls-1" x="19" y="15" width="7" height="7" rx="1" ry="1"/><rect class="cls-1" x="28" y="15" width="7" height="7" rx="1" ry="1"/><path class="cls-1" d="M19,40.67S21,51,22,54s2,8,4,8,3-1,5,1,5,2,6,0,4,1,6,2,3,0,6,1,4,0,6,2,8,3,8,3H19Z"/><path class="cls-1" d="M81,110s2-10.33,3-13.33,2-8,4-8,3,1,5-1,5-2,6,0,4-1,6-2,3,0,6-1,4,0,6-2,8-3,8-3H81Z"/><polygon class="cls-1" points="20 116 36 98 45 107 58 92 71.5 111.33 72 116 20 116"/><path class="cls-1" d="M81,71s11-4,13-5,5-17.23,12-18c9-1,8,17,11,18s16,5,16,5Z"/><circle class="cls-1" cx="64.5" cy="86.5" r="3.5"/><path class="cls-1" d="M81,71s14-1,16-2,2-19,9-19,5,18,8,19,19,2,19,2Z"/></svg>