<svg id="Layer_1" data-name="Layer 1" xmlns="http://www.w3.org/2000/svg" viewBox="0 0 156 137"><defs><style>.cls-1,.cls-3,.cls-4{fill:#008c99;}.cls-1{opacity:0.15;}.cls-2{fill:none;stroke:#008c99;stroke-miterlimit:10;stroke-width:2px;}.cls-3{opacity:0.5;}.cls-3,.cls-4{font-size:10px;font-family:PTMono-Bold, PT Mono;font-weight:700;}</style></defs><title>feature-code</title><rect class="cls-1" x="9" y="9" width="148" height="128" rx="1" ry="1"/><rect class="cls-2" x="2" y="2" width="148" height="128" rx="1" ry="1"/><text class="cls-3" transform="translate(14 21.75)">1<tspan x="0" y="12">2</tspan><tspan x="0" y="24">3</tspan><tspan x="0" y="36">4</tspan><tspan x="0" y="48">5</tspan><tspan x="0" y="60">6</tspan><tspan x="0" y="72">7</tspan><tspan x="0" y="84">8</tspan><tspan x="0" y="96">9</tspan></text><text class="cls-4" transform="translate(34 21.75)">def main():</text><rect class="cls-1" x="48" y="27" width="92" height="7" rx="1" ry="1"/><rect class="cls-1" x="48" y="39" width="72" height="7" rx="1" ry="1"/><rect class="cls-1" x="48" y="51" width="92" height="7" rx="1" ry="1"/><rect class="cls-1" x="48" y="63" width="21" height="7" rx="1" ry="1"/><rect class="cls-1" x="48" y="75" width="30" height="7" rx="1" ry="1"/><rect class="cls-1" x="59" y="87" width="30" height="7" rx="1" ry="1"/><rect class="cls-1" x="59" y="99" width="61" height="7" rx="1" ry="1"/><rect class="cls-1" x="59" y="111" width="49" height="7" rx="1" ry="1"/></svg>