<svg id="Layer_1" data-name="Layer 1" xmlns="http://www.w3.org/2000/svg" viewBox="0 0 210 60"><defs><style>.cls-1{fill:#d00000;}.cls-2{fill:#fff;}</style></defs><title>keras</title><path class="cls-1" d="M38,11H80.9V53.9H38Z"/><path class="cls-2" d="M54,44.11v-8l3.23-3.22,8.11,12,3.72,0,.69-1.4-9.44-13.7L69,21l-.48-1.4H64.76L54,30.42v-10l-.79-.83H50.48l-.79.82V44.08l.83.85h2.59l.85-.8Z"/><path d="M94.13,19.61h3.2v12.7h.12L108,19.61h3.63l-7.91,9.65,9.15,15.67h-3.59l-7.56-13.16L97.33,36.9v8h-3.2V19.61Zm20.38,16a11.36,11.36,0,0,1,.71-4.15,9.71,9.71,0,0,1,1.89-3.11,8.21,8.21,0,0,1,2.68-1.95,7.56,7.56,0,0,1,3.13-.68,7.86,7.86,0,0,1,3.18.62,6.21,6.21,0,0,1,2.35,1.78,8.14,8.14,0,0,1,1.45,2.78,12.24,12.24,0,0,1,.5,3.63,10.84,10.84,0,0,1-.12,1.74H117.63a7.46,7.46,0,0,0,1.87,4.82,5.75,5.75,0,0,0,4.38,1.78,7.38,7.38,0,0,0,2.49-.41,11,11,0,0,0,2.18-1.06l1.12,2.08a16,16,0,0,1-2.74,1.35,9.52,9.52,0,0,1-3.43.58,9.18,9.18,0,0,1-3.53-.68,8.37,8.37,0,0,1-2.86-1.93,8.94,8.94,0,0,1-1.91-3.07,11.48,11.48,0,0,1-.69-4.13Zm13.12-1.43a7,7,0,0,0-1.22-4.42A4.12,4.12,0,0,0,123,28.22a4.63,4.63,0,0,0-1.91.41,5.29,5.29,0,0,0-1.64,1.16,6.18,6.18,0,0,0-1.22,1.85,8.57,8.57,0,0,0-.64,2.53h10Zm7.41-8h2.62l.27,3.4h.12a8.67,8.67,0,0,1,2.34-2.82,4.84,4.84,0,0,1,3-1,5,5,0,0,1,2,.39l-.62,2.78a7.17,7.17,0,0,0-.85-.23,5,5,0,0,0-1-.08,4.2,4.2,0,0,0-2.49,1,7.68,7.68,0,0,0-2.26,3.36v12H135V26.17Zm11.5,13.89a5.2,5.2,0,0,1,2.76-4.73q2.76-1.64,8.78-2.3a8.68,8.68,0,0,0-.17-1.74,4.14,4.14,0,0,0-.62-1.51,3.36,3.36,0,0,0-1.18-1.06,3.89,3.89,0,0,0-1.89-.41,7.56,7.56,0,0,0-3.07.62,15.17,15.17,0,0,0-2.53,1.39l-1.27-2.2a20.47,20.47,0,0,1,3.2-1.64,10.7,10.7,0,0,1,4.17-.79q3.44,0,5,2.1a9.28,9.28,0,0,1,1.54,5.62v11.5h-2.62l-.27-2.24h-.08a15.62,15.62,0,0,1-2.91,1.91,7.21,7.21,0,0,1-3.3.79,5.73,5.73,0,0,1-4-1.39,5,5,0,0,1-1.56-3.94Zm3.13-.23a2.68,2.68,0,0,0,.95,2.32,3.84,3.84,0,0,0,2.34.69,5.46,5.46,0,0,0,2.57-.64,12.49,12.49,0,0,0,2.57-1.87V35.13a32.86,32.86,0,0,0-4,.73,10.4,10.4,0,0,0-2.61,1,3.72,3.72,0,0,0-1.41,1.33,3.28,3.28,0,0,0-.42,1.64Zm17.06.85a12.68,12.68,0,0,0,2.53,1.62,6.86,6.86,0,0,0,3,.62,4,4,0,0,0,2.78-.85A2.72,2.72,0,0,0,176,40a2.13,2.13,0,0,0-.39-1.27,3.83,3.83,0,0,0-1-.95,7.18,7.18,0,0,0-1.37-.71l-1.54-.62q-1-.35-2-.79a8,8,0,0,1-1.79-1.08,5.5,5.5,0,0,1-1.29-1.49,4,4,0,0,1-.5-2,5.07,5.07,0,0,1,.44-2.1,4.84,4.84,0,0,1,1.27-1.7,6,6,0,0,1,2-1.12,9,9,0,0,1,6,.21,10.14,10.14,0,0,1,2.57,1.51l-1.51,2a10.09,10.09,0,0,0-2-1.2,5.55,5.55,0,0,0-2.28-.46A3.61,3.61,0,0,0,170,29a2.56,2.56,0,0,0-.83,1.89,1.9,1.9,0,0,0,.35,1.14,3.28,3.28,0,0,0,.93.85,7.57,7.57,0,0,0,1.33.66l1.56.6q1,.39,2,.81A7.76,7.76,0,0,1,177.15,36a5.22,5.22,0,0,1,1.33,1.56A4.49,4.49,0,0,1,179,39.8a5.28,5.28,0,0,1-.44,2.16,5.15,5.15,0,0,1-1.31,1.78,6.28,6.28,0,0,1-2.16,1.22,9.07,9.07,0,0,1-3,.44,10.09,10.09,0,0,1-3.82-.73,11.91,11.91,0,0,1-3.17-1.85l1.58-2.12Z"/></svg>