<svg id="Layer_1" data-name="Layer 1" xmlns="http://www.w3.org/2000/svg" viewBox="0 0 210 60"><defs><style>.cls-1{fill:#048ccb;}.cls-2{fill:#fff;}</style></defs><title>mxnet</title><circle class="cls-1" cx="53" cy="32.67" r="25.33"/><path class="cls-2" d="M75.17,43.58H62.1V42l1-.11a2.37,2.37,0,0,0,.87-.22,1.06,1.06,0,0,0,.61-.74,5.56,5.56,0,0,0,.13-1.33V29.31a5.87,5.87,0,0,0-.81-3.4,2.66,2.66,0,0,0-2.31-1.13,4.5,4.5,0,0,0-1.69.3,6.54,6.54,0,0,0-1.36.74,4.7,4.7,0,0,0-1,.92l-.6.79V39.34a3.73,3.73,0,0,0,.19,1.29,1.49,1.49,0,0,0,.69.78,4.71,4.71,0,0,0,.8.35,4.83,4.83,0,0,0,.95.22v1.61H47.1V42l1-.11a2.49,2.49,0,0,0,.87-.22,1.16,1.16,0,0,0,.6-.7,4.94,4.94,0,0,0,.14-1.36V29.31a5.87,5.87,0,0,0-.81-3.4,2.66,2.66,0,0,0-2.31-1.13,4.5,4.5,0,0,0-1.69.3,6.54,6.54,0,0,0-1.36.74,4.7,4.7,0,0,0-1,.92l-.6.79V39.34a3.53,3.53,0,0,0,.2,1.28,1.54,1.54,0,0,0,.7.79,4.78,4.78,0,0,0,.8.35,4.9,4.9,0,0,0,1,.22v1.61H31.46V42l1.12-.11a3.9,3.9,0,0,0,.95-.22,1.72,1.72,0,0,0,1-.76,2.79,2.79,0,0,0,.26-1.31V26.78a2.79,2.79,0,0,0-.37-1.37,3.1,3.1,0,0,0-.9-1,3.64,3.64,0,0,0-1-.44,7.07,7.07,0,0,0-1.33-.24V22.07l10.49-.57.33.33v3.1h.09l1.46-1.31a11.44,11.44,0,0,1,1.59-1.22,7.53,7.53,0,0,1,2.09-.88A10.5,10.5,0,0,1,50,21.17a7.56,7.56,0,0,1,4.19,1.09,6,6,0,0,1,2.39,2.89h.2q.64-.59,1.56-1.4A14,14,0,0,1,60,22.47a8.15,8.15,0,0,1,2.19-.92,10.48,10.48,0,0,1,2.85-.37,6.59,6.59,0,0,1,5.11,2A8,8,0,0,1,72,28.69V39.38a3,3,0,0,0,.24,1.31,1.6,1.6,0,0,0,.88.76,7.57,7.57,0,0,0,.87.31,6.35,6.35,0,0,0,1.2.22Z"/><path d="M103.66,43.58H89.92V42a17.94,17.94,0,0,0,1.81-.19q.73-.12.73-.49a1.44,1.44,0,0,0-.19-.55q-.19-.37-.47-.84-.42-.68-1.44-2.16T88.42,35q-1.28,1.48-2.14,2.54t-1.81,2.27a2.81,2.81,0,0,0-.46.73,1.84,1.84,0,0,0-.13.4q0,.51.72.77a4.94,4.94,0,0,0,1.71.26v1.61H77.38V42a7,7,0,0,0,2.85-1.19,10.13,10.13,0,0,0,1.44-1.25q1.61-1.72,2.72-2.86t3-3.19q-1.25-1.73-3-4.23t-3-4.1a4.1,4.1,0,0,0-1.46-1.22,6.44,6.44,0,0,0-2.23-.56V21.76H91.13v1.61a11.55,11.55,0,0,0-1.43.09q-.7.09-.7.31a1.19,1.19,0,0,0,.11.44,4,4,0,0,0,.29.55q.42.7,1.32,2.07t1.93,2.86q1-1.21,1.66-2T96,25.53a3.75,3.75,0,0,0,.49-.79,1.41,1.41,0,0,0,.1-.33.82.82,0,0,0-.47-.67,4.28,4.28,0,0,0-1.86-.36V21.76H103v1.61a6.57,6.57,0,0,0-2.09.73,8.76,8.76,0,0,0-2.11,1.72l-2.49,2.61-2.58,2.74,2.92,4.16q1.91,2.73,3.3,4.6a5.75,5.75,0,0,0,1.33,1.36,5.06,5.06,0,0,0,2.34.7Z"/><path d="M135.46,43.58H122.24V42l1-.11a2.77,2.77,0,0,0,.9-.22,1.4,1.4,0,0,0,.66-.7,3.62,3.62,0,0,0,.2-1.36V29.29a5.71,5.71,0,0,0-.83-3.38,2.83,2.83,0,0,0-2.44-1.13,5,5,0,0,0-1.64.26,6.14,6.14,0,0,0-1.49.77,5.06,5.06,0,0,0-1,.9q-.39.46-.65.81V39.34a3.29,3.29,0,0,0,.22,1.29,1.54,1.54,0,0,0,.73.78,4.21,4.21,0,0,0,.88.35,6.83,6.83,0,0,0,1,.22v1.61H106.42V42q.55,0,1.11-.12a5.38,5.38,0,0,0,1-.21,1.62,1.62,0,0,0,1-.75,2.85,2.85,0,0,0,.26-1.32V26.78a2.82,2.82,0,0,0-.35-1.34,3.15,3.15,0,0,0-.92-1.08,3.64,3.64,0,0,0-1-.44,7.07,7.07,0,0,0-1.33-.24V22.07l10.49-.57.33.33V25H117l1.5-1.32a14.39,14.39,0,0,1,1.63-1.25,7.9,7.9,0,0,1,2.13-.9,10.28,10.28,0,0,1,2.82-.37,6.79,6.79,0,0,1,5.38,2,7.87,7.87,0,0,1,1.79,5.4V39.38a2.92,2.92,0,0,0,.24,1.3,1.71,1.71,0,0,0,.9.77,7.59,7.59,0,0,0,.87.31,6.33,6.33,0,0,0,1.18.22Z"/><path d="M162.5,38.33a13.35,13.35,0,0,1-1.86,2.36,11.27,11.27,0,0,1-2.47,1.9,13.56,13.56,0,0,1-3,1.26,12.67,12.67,0,0,1-3.46.43,15.42,15.42,0,0,1-5.62-.92,11,11,0,0,1-3.9-2.49,9.94,9.94,0,0,1-2.3-3.68,13.59,13.59,0,0,1-.76-4.61,11.56,11.56,0,0,1,3.17-8,11.23,11.23,0,0,1,3.77-2.53,12.9,12.9,0,0,1,5.09-1,14.51,14.51,0,0,1,5.06.75,9,9,0,0,1,3.28,2.07,7.5,7.5,0,0,1,1.83,3,11.17,11.17,0,0,1,.57,3.57V31.9H147q0,4.51,1.74,6.86t5.52,2.35A6.41,6.41,0,0,0,158,40a10.6,10.6,0,0,0,2.82-2.87ZM154.1,30q0-1.32-.13-2.71A9,9,0,0,0,153.5,25a3.49,3.49,0,0,0-1-1.56,2.51,2.51,0,0,0-1.64-.53,3,3,0,0,0-2.71,1.72,11.66,11.66,0,0,0-1.1,5.43Z"/><path d="M182.33,42.57a28.25,28.25,0,0,1-3,1.11,13.42,13.42,0,0,1-3.92.5,6.91,6.91,0,0,1-5.09-1.67,6.47,6.47,0,0,1-1.66-4.77V24.25h-4v-2.4h4V15.19h7.13v6.66H182v2.4h-6.14v12a6.87,6.87,0,0,0,.72,3.65A2.86,2.86,0,0,0,179.19,41q.6,0,1.66-.09a10,10,0,0,0,1.48-.2Z"/></svg>