<svg id="Layer_1" data-name="Layer 1" xmlns="http://www.w3.org/2000/svg" viewBox="0 0 210 60"><defs><style>.cls-1{font-size:27.66px;font-family:Tahoma, Tahoma;}.cls-2{letter-spacing:-0.02em;}</style></defs><title>paddle</title><circle cx="27.54" cy="20.72" r="1.92"/><rect x="17.19" y="25.02" width="12.62" height="2.62" rx="1.24" ry="1.24" transform="translate(-7.21 8.95) rotate(-18.74)"/><rect x="20.46" y="28.38" width="12.62" height="2.62" rx="1.24" ry="1.24" transform="translate(-9.9 45.6) rotate(-71.42)"/><path d="M27.54,33.72c-.48.38-19,.05-19,.05a.9.9,0,0,0-.9.9v.19a.9.9,0,0,0,.9.9H26.8a4.69,4.69,0,0,0,1.72-.41c.41-.16,1.7-1,1.7-1a.9.9,0,1,0-.74-1.64"/><path d="M7.42,33.72c.48.38,19,.05,19,.05a.9.9,0,0,1,.9.9v.19a.9.9,0,0,1-.9.9H8.15a4.69,4.69,0,0,1-1.72-.41c-.41-.16-1.7-1-1.7-1a.9.9,0,0,1,.74-1.64"/><path d="M25.17,35.19,18,26.46a.37.37,0,0,0,0-.42.51.51,0,0,0-.76.62.36.36,0,0,0,.39.08l6.83,8.94s3.84,7.2,5.56,8a1.27,1.27,0,0,0,1.72-1.23C31.93,41.05,25.17,35.19,25.17,35.19Z"/><circle cx="13.76" cy="20.76" r="1.92"/><rect x="3.4" y="25.06" width="12.62" height="2.62" rx="1.24" ry="1.24" transform="translate(-7.96 4.52) rotate(-18.74)"/><rect x="6.68" y="28.42" width="12.62" height="2.62" rx="1.24" ry="1.24" transform="translate(-19.33 32.56) rotate(-71.42)"/><path d="M11.39,35.23,4.27,26.5a.37.37,0,0,0,0-.42.44.44,0,0,0-.61,0,.44.44,0,0,0-.15.59.36.36,0,0,0,.39.08l6.83,8.94s3.84,7.2,5.56,8A1.27,1.27,0,0,0,18,42.51C18.15,41.09,11.39,35.23,11.39,35.23Z"/><text class="cls-1" transform="translate(43.96 42.03)"><tspan class="cls-2">P</tspan><tspan x="14.61" y="0">addle</tspan><tspan class="cls-2" x="80.58" y="0">P</tspan><tspan x="95.19" y="0">addle</tspan></text></svg>