<svg id="Layer_1" data-name="Layer 1" xmlns="http://www.w3.org/2000/svg" viewBox="0 0 210 60"><defs><style>.cls-1{fill:#f05732;}.cls-2{fill:#9e529f;}.cls-3{fill:#333;}</style></defs><title>pytorch</title><path class="cls-1" d="M108.52,21.23c-1.2-.92-1.66,3.59-4,3.59-2.76,0-3.68-12-5.8-12-.64,0-.74-.37-7.27,19.6C88.74,40.74,95.46,47,102.27,47c4.23,0,11.32-2.76,11.32-11.6C113.59,28.87,110.37,22.61,108.52,21.23Zm-6.35,21.26A6.45,6.45,0,1,1,108.34,36,6.29,6.29,0,0,1,102.17,42.49Z"/><path class="cls-2" d="M105.86,10c-.46,0-1.66,2.3-1.66,3.31a1.67,1.67,0,1,0,3.31,0C107.42,12.3,106.22,10,105.86,10Z"/><path class="cls-3" d="M14,46.36V23.71H24.58c4.88,0,7.64,3.31,7.64,7.27s-2.76,7.27-7.64,7.27h-5.8v8.1ZM27.25,31c0-1.93-1.47-3-3.41-3H18.79V34h5.06A3.11,3.11,0,0,0,27.25,31ZM46.4,46.36v-9.3L37.75,23.71h5.52l5.61,9,5.61-9h5.43L51.28,37.06v9.3Zm25.86,0V27.95H65.63V23.71h18v4.23H77V46.36Zm62.68,0-4.42-8H127v8h-4.79V23.71h10.49c4.69,0,7.64,3.13,7.64,7.27a6.57,6.57,0,0,1-5,6.72l5.15,8.65h-5.61ZM135.4,31a3.11,3.11,0,0,0-3.41-3h-5.06V34H132C133.93,34,135.4,32.92,135.4,31ZM148,35c0-7,5.25-11.69,12.06-11.69a10.4,10.4,0,0,1,9.48,5.52l-4.14,2a6.06,6.06,0,0,0-5.34-3.31c-4.14,0-7.09,3.13-7.09,7.46s2.95,7.46,7.09,7.46a6.28,6.28,0,0,0,5.34-3.31l4.14,2a10.3,10.3,0,0,1-9.48,5.52C153.26,46.72,148,41.94,148,35Zm45,11.32V36.78H182.34v9.57h-4.79V23.71h4.79v8.93H193V23.71h4.88V46.36Z"/></svg>