<svg id="Layer_1" data-name="Layer 1" xmlns="http://www.w3.org/2000/svg" viewBox="0 0 210 60"><defs><style>.cls-1{fill:#f6bd3a;}.cls-2{fill:#eb8c23;}.cls-3{fill:#e35a2b;}.cls-4{fill:#ef6639;}.cls-5{fill:#a6a7a9;}</style></defs><title>tensorflow</title><path class="cls-1" d="M20.91,31.48l5.14-3,5.07,3L26,34.4l-5.14-2.85v-.06Z"/><path class="cls-1" d="M5.5,22.67,26,11l15.28,8.69L36.25,28.5,26,22.67,10.64,31.42Z"/><path class="cls-2" d="M20.91,43.14V37.31L26,34.4l5.14-2.92v5.83L26,40.23v5.83l-5.14,3v-5.9Zm0-11.67-5.14-2.92-5.14,2.85V25.58L26,16.83V28.5l-5.14,3Zm15.28-5.9V22.67l5.14-3,.06,5.83-5.14,3Z"/><path class="cls-3" d="M15.77,45.93V28.56l5.07-2.85.06,5.77L26,34.33v5.9L20.91,37.5V49l-5.14-3.11ZM8,29.89,5.5,28.37V22.67l5.14,2.92v5.83L8,29.89Zm18-7.23V16.83l10.14,5.83.06,5.83L26,22.67Z"/><path class="cls-4" d="M54.74,24.12V46H50.89V24.12H43.42V20.35H62.21v3.77H54.74Z"/><path class="cls-4" d="M74.94,32.07A10.81,10.81,0,0,1,75.25,35L62.84,38.67a2,2,0,0,0,.36,1.21,5.17,5.17,0,0,0,1.1,1.63,4.32,4.32,0,0,0,1.47,1,4.64,4.64,0,0,0,1.69.31,5.92,5.92,0,0,0,2.22-.4,8.24,8.24,0,0,0,2-1.14l2.23,2.42A9.46,9.46,0,0,1,71,45.52a9.75,9.75,0,0,1-3.77.66A8,8,0,0,1,64,45.52a7.51,7.51,0,0,1-2.66-1.94,9.41,9.41,0,0,1-1.79-3.15,12.72,12.72,0,0,1-.66-4.25,13.67,13.67,0,0,1,.62-4.32,9.09,9.09,0,0,1,1.72-3.13,7.19,7.19,0,0,1,2.66-1.92,8.69,8.69,0,0,1,3.43-.66,7.82,7.82,0,0,1,3.57.77A7.26,7.26,0,0,1,73.44,29a9,9,0,0,1,1.5,3.08Zm-3.61.87a4.34,4.34,0,0,0-.88-2,3.22,3.22,0,0,0-1.37-1,5.17,5.17,0,0,0-2-.29,4.43,4.43,0,0,0-3.37,1.46,7.66,7.66,0,0,0-.88,4.37ZM88.88,45.78V34.9q0-2.93-1-4.1a3.7,3.7,0,0,0-2.91-1.17A3.54,3.54,0,0,0,82,30.9a5.68,5.68,0,0,0-1,3.63V45.78H77.19V26.54H81v1.83a4.79,4.79,0,0,1,2-1.65,6.74,6.74,0,0,1,2.8-.59,6.17,6.17,0,0,1,5.11,2.16q1.74,2.16,1.74,6.45v11H88.88Zm19.27-5.06a5.46,5.46,0,0,1-.6,2.69A5,5,0,0,1,106,45.15a6.78,6.78,0,0,1-2.29,1,12.39,12.39,0,0,1-2.73.29A11.7,11.7,0,0,1,97,45.7a13.48,13.48,0,0,1-3.43-1.76l1.72-2.86a10.68,10.68,0,0,0,2.8,1.43,9,9,0,0,0,2.8.48q3.52,0,3.52-2.12a2,2,0,0,0-1.19-1.76,27.37,27.37,0,0,0-3.28-1.47,20,20,0,0,1-2.62-1.19,7.65,7.65,0,0,1-1.76-1.3,4.12,4.12,0,0,1-1-1.56,6.2,6.2,0,0,1-.29-2,5.17,5.17,0,0,1,.48-2.27,4.44,4.44,0,0,1,1.36-1.65,6.12,6.12,0,0,1,2.09-1,10,10,0,0,1,2.64-.33,10.79,10.79,0,0,1,3.53.59,10.93,10.93,0,0,1,3,1.54l-1.65,2.89a8.93,8.93,0,0,0-2.38-1.25,8.18,8.18,0,0,0-2.6-.4,3.26,3.26,0,0,0-2,.49,1.54,1.54,0,0,0-.62,1.26,1.57,1.57,0,0,0,.15.68,2,2,0,0,0,.55.64,6.2,6.2,0,0,0,1.08.68q.68.35,1.78.79,1.61.62,2.82,1.19a8.8,8.8,0,0,1,2,1.28,4.52,4.52,0,0,1,1.23,1.67,5.92,5.92,0,0,1,.4,2.31h0Zm17.55-4.43a12.89,12.89,0,0,1-.66,4.27,9.25,9.25,0,0,1-1.83,3.19,7.83,7.83,0,0,1-2.75,2,8.62,8.62,0,0,1-3.44.68,7.78,7.78,0,0,1-6-2.75,9.66,9.66,0,0,1-1.78-3.15,12.36,12.36,0,0,1-.64-4.1,12.61,12.61,0,0,1,.66-4.21A9.45,9.45,0,0,1,111,29a7.69,7.69,0,0,1,2.71-2,8.39,8.39,0,0,1,3.39-.68,8.14,8.14,0,0,1,6.14,2.71,9,9,0,0,1,1.79,3.13,12.4,12.4,0,0,1,.64,4.08Zm-3.81.11a7.69,7.69,0,0,0-1.3-4.71A4.25,4.25,0,0,0,117,29.95a3.92,3.92,0,0,0-3.39,1.74,7.82,7.82,0,0,0-1.23,4.6,7.69,7.69,0,0,0,1.32,4.85,4.22,4.22,0,0,0,3.48,1.67,3.78,3.78,0,0,0,1.94-.51,4.87,4.87,0,0,0,1.5-1.37,6.38,6.38,0,0,0,1-2,9.16,9.16,0,0,0,.33-2.49Zm16-5.64a6.39,6.39,0,0,0-1.28-.51,6.1,6.1,0,0,0-1.61-.18,3.35,3.35,0,0,0-2.78,1.25,5.87,5.87,0,0,0-1,3.7V46h-3.77V26.76h3.77v1.83a5.36,5.36,0,0,1,4.4-2.23,7.6,7.6,0,0,1,1.92.2,4.3,4.3,0,0,1,1.34.6l-1,3.59Z"/><path class="cls-5" d="M144.2,24.12v6.7h7.36V34.6H144.2V46h-3.85V20.35h16.52v3.77H144.2ZM157.5,46V21.27l3.77-2V46H157.5Zm23-9.71a12.89,12.89,0,0,1-.66,4.27,9.25,9.25,0,0,1-1.83,3.19,7.83,7.83,0,0,1-2.75,2,8.62,8.62,0,0,1-3.44.68,7.78,7.78,0,0,1-6-2.75A9.66,9.66,0,0,1,164,40.5a12.36,12.36,0,0,1-.64-4.1,12.6,12.6,0,0,1,.66-4.21A9.45,9.45,0,0,1,165.87,29a7.69,7.69,0,0,1,2.71-2,8.4,8.4,0,0,1,3.39-.68,8.14,8.14,0,0,1,6.14,2.71,9,9,0,0,1,1.8,3.13,12.41,12.41,0,0,1,.64,4.08h0Zm-3.81.11a7.69,7.69,0,0,0-1.3-4.71,4.25,4.25,0,0,0-3.61-1.74,3.92,3.92,0,0,0-3.39,1.74,7.82,7.82,0,0,0-1.23,4.6,7.69,7.69,0,0,0,1.32,4.85A4.22,4.22,0,0,0,172,42.81a3.78,3.78,0,0,0,1.94-.51,4.87,4.87,0,0,0,1.5-1.37,6.39,6.39,0,0,0,1-2,9.16,9.16,0,0,0,.33-2.49ZM199.15,46h-3.22l-2.6-9.71q-.3-1.12-.57-2.25t-.42-1.85q-.2.94-.42,1.87-.27,1.14-.57,2.27L188.78,46h-3.22l-5.28-19.23H184l2.27,9.34q.3,1.15.55,2.31l.4,1.91.48-1.9q.29-1.16.59-2.31l2.56-9.34h3l2.6,9.38q.29,1.14.57,2.29t.46,1.89q.18-.73.42-1.92t.53-2.29l2.27-9.34h3.74L199.15,46Z"/></svg>